<svg id="Layer_5" enable-background="new 0 0 64 64" height="512" viewBox="0 0 64 64" width="512" xmlns="http://www.w3.org/2000/svg"><path d="m60 43h-8.184c.112-.314.184-.648.184-1v-14c0-1.654-1.346-3-3-3h-19.744c-1.817-3.426-4.919-6.066-8.664-7.274 2.635-1.572 4.408-4.442 4.408-7.726 0-4.962-4.037-9-9-9-3.001 0-5.797 1.526-7.46 4h-4.54c-1.654 0-3 1.346-3 3s1.346 3 3 3h3.059c.318 2.862 1.986 5.316 4.348 6.726-6.03 1.945-10.407 7.605-10.407 14.274v3c0 2.206 1.794 4 4 4h2v19c0 2.757 2.243 5 5 5 1.641 0 3.088-.806 4-2.031.912 1.225 2.359 2.031 4 2.031h18c.771 0 1.468-.301 2-.78.532.48 1.229.78 2 .78h18c1.654 0 3-1.346 3-3v-14c0-1.654-1.346-3-3-3zm-11 2h4v4h-4zm-11-18h4v4h-4zm-2 0v6h8v-6h5c.552 0 1 .449 1 1v14c0 .551-.448 1-1 1h-5v-6h-8v6h-5c-.552 0-1-.449-1-1v-4.382c.615-.703 1-1.612 1-2.618v-3c0-1.755-.319-3.433-.875-5zm2 16v-4h4v4zm-25-2v-14h10v4h-2c-2.206 0-4 1.794-4 4s1.794 4 4 4h2v1 1zm12-1v-1h2c.347 0 .678-.058 1-.142v3.142c0 .352.072.686.184 1h-3.184zm4 5h2 2v4h-4zm-13-26c.676 0 1.335.068 1.983.168-.087 1.023-.938 1.832-1.983 1.832s-1.896-.809-1.983-1.832c.648-.1 1.307-.168 1.983-.168zm6.92-10h-7.302l-.618-1.236c-.771-1.542-2.249-2.547-3.934-2.726 1.297-1.285 3.068-2.038 4.934-2.038 3.519 0 6.432 2.613 6.92 6zm-19.92-1c0-.551.448-1 1-1h6.528c1.144 0 2.171.635 2.683 1.658l.171.342h-9.382c-.552 0-1-.449-1-1zm6.08 3h13.84c-.488 3.387-3.401 6-6.92 6s-6.432-2.613-6.92-6zm-6.08 24v-3c0-5.796 3.814-10.714 9.062-12.387.298 1.914 1.942 3.387 3.938 3.387s3.64-1.473 3.938-3.387c5.248 1.673 9.062 6.591 9.062 12.387v3c0 1.103-.897 2-2 2h-6c-1.103 0-2-.897-2-2s.897-2 2-2h6v-2h-2v-6h-14v2.586l-2.293-2.293-1.414 1.414 3.707 3.707v.586h-6v2h6v4h-6c-1.103 0-2-.897-2-2zm9 26c-1.654 0-3-1.346-3-3v-19h2v4h4v15c0 1.654-1.346 3-3 3zm5-3v-15h6v2 13c0 1.654-1.346 3-3 3s-3-1.346-3-3zm16 3h-4v-4h4zm5 0h-3v-6h-8v6h-3.026c.635-.838 1.026-1.87 1.026-3v-13h2v6h8v-6h3c.552 0 1 .449 1 1v14c0 .551-.448 1-1 1zm15 0h-4v-4h4zm8-1c0 .551-.448 1-1 1h-5v-6h-8v6h-5c-.552 0-1-.449-1-1v-14c0-.551.448-1 1-1h5v6h8v-6h5c.552 0 1 .449 1 1z"/><path d="m43 7.345 3.638-3.638-1.414-1.414-2.707 2.707h-13.517v14h14zm-12 9.655v-10h9.517l-6.517 6.517-1.293-1.293-1.414 1.414 2.707 2.707 7-7v7.655z"/><path d="m47 5h14v2h-14z"/><path d="m47 9h14v2h-14z"/><path d="m47 13h14v2h-14z"/><path d="m47 17h6v2h-6z"/><path d="m59 17h2v2h-2z"/><path d="m55 17h2v2h-2z"/></svg>